<svg xmlns="http://www.w3.org/2000/svg" xmlns:xlink="http://www.w3.org/1999/xlink" fill="none" version="1.1" width="31" height="31" viewBox="0 0 31 31"><g><path d="M15.5,0C6.93959,0,0,6.93959,0,15.5C0,24.0604,6.93959,31,15.5,31C24.0604,31,31,24.0604,31,15.5C31,6.93959,24.0604,0,15.5,0ZM23.977,11.8181L13.8731,21.9219C13.6367,22.1583,13.2533,22.1583,13.0169,21.9219L7.02303,15.9281C6.78659,15.6917,6.78659,15.3083,7.02303,15.0719L8.90681,13.1882C9.14325,12.9517,9.52662,12.9517,9.76306,13.1882L13.445,16.87L21.2371,9.07803C21.4735,8.84159,21.8568,8.84159,22.0933,9.07803L23.9771,10.9618C24.2134,11.1982,24.2135,11.5816,23.977,11.8181L23.977,11.8181Z" fill="#649502" fill-opacity="1"/></g></svg>