<svg xmlns="http://www.w3.org/2000/svg" xmlns:xlink="http://www.w3.org/1999/xlink" fill="none" version="1.1" width="32" height="32" viewBox="0 0 32 32"><defs><clipPath id="master_svg0_2_424"><rect x="0" y="0" width="32" height="32" rx="0"/></clipPath></defs><g clip-path="url(#master_svg0_2_424)"><g><path d="M19.62502998046875,2.4771813125C12.15622998046875,0.47718031250000004,4.4797099804687495,4.9081203124999995,2.47877098046875,12.3765703125C0.47782998046875,19.8449703125,4.90814998046875,27.5218703125,12.37662998046875,29.5227703125C19.84502998046875,31.5237703125,27.52192998046875,27.0918703125,29.52282998046875,19.6249703125C31.52372998046875,12.1580703125,27.09192998046875,4.4781203125,19.62502998046875,2.4771813125ZM16.00002998046875,6.4999903125C16.62132998046875,6.4999903125,17.12502998046875,7.0036703125,17.12502998046875,7.6249903125C17.12502998046875,8.2463103125,16.62132998046875,8.7499903125,16.00002998046875,8.7499903125C15.37872998046875,8.7499903125,14.87502998046875,8.2463103125,14.87502998046875,7.6249903125C14.87502998046875,7.0036703125,15.37872998046875,6.4999903125,16.00002998046875,6.4999903125ZM18.08972998046875,12.5480703125L15.27092998046875,23.0677703125C16.08332998046875,22.9441703125,16.80132998046875,22.4724703125,17.23722998046875,21.7759703125C17.32532998046875,21.6266703125,17.509729980468748,21.5647703125,17.670029980468748,21.6308703125C17.83032998046875,21.6968703125,17.91762998046875,21.8706703125,17.87502998046875,22.0387703125L17.67372998046875,22.7887703125C17.19132998046875,24.5891703125,15.34072998046875,25.6576703125,13.54032998046875,25.1752703125C12.94022998046875,25.0143703125,12.58422998046875,24.3975703125,12.74502998046875,23.7974703125L15.56372998046875,13.2777703125C14.75152998046875,13.4015703125,14.03352998046875,13.8732703125,13.59752998046875,14.5696703125C13.51022998046875,14.7208703125,13.32462998046875,14.7841703125,13.16312998046875,14.7176703125C13.00172998046875,14.6512703125,12.91432998046875,14.4756703125,12.95872998046875,14.3068703125L13.16002998046875,13.5568703125C13.64242998046875,11.7564203125,15.49302998046875,10.6879303125,17.29342998046875,11.1703003125C17.893929980468748,11.3307803125,18.25042998046875,11.9477403125,18.08972998046875,12.5480703125Z" fill="#1A76C1" fill-opacity="1"/></g></g></svg>