<svg xmlns="http://www.w3.org/2000/svg" xmlns:xlink="http://www.w3.org/1999/xlink" fill="none" version="1.1" width="31.888561248779297" height="27.20000457763672" viewBox="0 0 31.888561248779297 27.20000457763672"><g><path d="M18.6333,1.2C18.6333,1.33334,18.9,1.6,19.3,2.26667C19.7,2.93334,20.1,3.6,20.6333,4.66667C21.1667,5.73334,21.8333,6.66667,22.5,7.86667C23.1667,9.06667,23.9667,10.2667,24.6333,11.4667C25.3,12.6667,26.1,14,26.7667,15.2C27.4333,16.4,28.1,17.6,28.7667,18.5333C29.3,19.6,29.8333,20.4,30.3667,21.2C30.9,22,31.0333,22.4,31.3,22.6667C31.5667,23.2,31.8333,23.7333,31.8333,24.2667C31.9667,24.8,31.8333,25.2,31.7,25.7333C31.5667,26.2667,31.3,26.5333,31.0333,26.8C30.6333,27.0667,30.2333,27.2,29.7,27.2L2.76667,27.2C1.96667,27.2,1.3,27.0667,0.9,26.8C0.5,26.5333,0.233333,26.1333,0.1,25.7333C-0.0333333,25.3333,-0.0333333,24.8,0.1,24.4C0.233333,23.8667,0.366667,23.4667,0.766667,22.9333C0.9,22.6667,1.16667,22.2667,1.56667,21.4667C1.96667,20.8,2.5,19.8667,3.16667,18.9333C3.83333,17.8667,4.5,16.8,5.16667,15.6C5.83333,14.4,6.63333,13.0667,7.43333,11.8667C8.23333,10.6667,8.9,9.33333,9.56667,8.13333C10.2333,6.93333,10.9,5.86667,11.4333,4.93333C11.9667,4,12.5,3.2,12.9,2.53333L13.5667,1.46667C13.8333,1.06667,14.2333,0.666667,14.7667,0.4C15.3,0.133333,15.7,0,16.2333,0C16.7667,0,17.1667,0.133333,17.7,0.266667C17.9667,0.4,18.3667,0.8,18.6333,1.2ZM17.8333,7.33334C17.8333,7.06667,17.8333,6.8,17.7,6.66667C17.5667,6.4,17.4333,6.26667,17.3,6.13334C17.1667,6,16.9,5.86667,16.6333,5.73334C16.3667,5.6,16.1,5.46667,15.8333,5.46667C15.3,5.46667,14.9,5.6,14.5,6C14.1,6.4,13.8333,6.8,13.8333,7.33334L13.8333,15.6C13.8333,16.1333,14.1,16.5333,14.5,16.9333C14.9,17.3333,15.3,17.4667,15.8333,17.4667C16.3667,17.4667,16.7667,17.3333,17.1667,16.9333C17.5667,16.5333,17.8333,16.1333,17.8333,15.6L17.8333,7.33334ZM15.8333,19.3333C15.3,19.3333,14.7667,19.4667,14.5,19.8667C14.2333,20.2667,13.9667,20.6667,13.9667,21.2C13.9667,21.7333,14.1,22.2667,14.5,22.5333C14.9,22.9333,15.3,23.0667,15.8333,23.0667C16.3667,23.0667,16.9,22.9333,17.1667,22.5333C17.5667,22.1333,17.7,21.7333,17.7,21.2C17.7,20.6667,17.5667,20.1333,17.1667,19.8667C16.9,19.4667,16.3667,19.3333,15.8333,19.3333Z" fill="#EE6419" fill-opacity="1"/></g></svg>