<svg xmlns="http://www.w3.org/2000/svg" xmlns:xlink="http://www.w3.org/1999/xlink" fill="none" version="1.1" width="32" height="32" viewBox="0 0 32 32"><defs><clipPath id="master_svg0_2_412"><rect x="0" y="0" width="32" height="32" rx="0"/></clipPath></defs><g clip-path="url(#master_svg0_2_412)"><g><path d="M27.1906005859375,24.224981103515624C27.1156005859375,24.003181103515626,27.1656005859375,23.762481103515626,27.3093005859375,23.578181103515625C28.9843005859375,21.484381103515624,29.9718005859375,18.906281103515624,29.9718005859375,16.118781103515623C29.9718005859375,9.093761103515625,23.7062005859375,3.396881103515625,15.9781005859375,3.396881103515625C8.2499805859375,3.396881103515625,1.9906005859375,9.090631103515625,1.9906005859375,16.115681103515627C1.9906005859375,23.140681103515625,8.2562305859375,28.837481103515625,15.9843005859375,28.837481103515625C18.8218005859375,28.837481103515625,21.4625005859375,28.068781103515626,23.6687005859375,26.746881103515626C23.8531005859375,26.637481103515626,24.0656005859375,26.596881103515624,24.2750005859375,26.640681103515625L27.7344005859375,27.346881103515624C27.9750005859375,27.396881103515625,28.1781005859375,27.165581103515624,28.1000005859375,26.934381103515626L27.1906005859375,24.224981103515624ZM14.0750005859375,21.840681103515625L10.2562205859375,21.840681103515625C9.2031005859375,21.840681103515625,8.3468505859375,20.987481103515623,8.3468505859375,19.931281103515627C8.3468505859375,18.878181103515622,9.1999705859375,18.021881103515625,10.2562205859375,18.021881103515625L14.0719005859375,18.021881103515625C15.1250005859375,18.021881103515625,15.9812005859375,18.874981103515623,15.9812005859375,19.931281103515627C15.9812005859375,20.987481103515623,15.1281005859375,21.840681103515625,14.0750005859375,21.840681103515625ZM21.7062005859375,15.481281103515625L10.2562205859375,15.481281103515625C9.2031005859375,15.481281103515625,8.3468505859375,14.628181103515624,8.3468505859375,13.571881103515626C8.3468505859375,12.518761103515626,9.1999705859375,11.662511103515625,10.2562205859375,11.662511103515625L21.7031005859375,11.662511103515625C22.7562005859375,11.662511103515625,23.6125005859375,12.515631103515625,23.6125005859375,13.571881103515626C23.6125005859375,14.628181103515624,22.7593005859375,15.481281103515625,21.7062005859375,15.481281103515625Z" fill="#868686" fill-opacity="1"/></g></g></svg>