<svg xmlns="http://www.w3.org/2000/svg" xmlns:xlink="http://www.w3.org/1999/xlink" fill="none" version="1.1" width="32" height="32" viewBox="0 0 32 32"><defs><clipPath id="master_svg0_2_420"><rect x="0" y="0" width="32" height="32" rx="0"/></clipPath></defs><g clip-path="url(#master_svg0_2_420)"><g><path d="M25.8559912109375,6.112004150390625Q27.9039912109375,8.160004150390625,28.9119912109375,10.720004150390626Q29.9199912109375,13.280004150390624,29.9199912109375,15.968004150390625Q29.9199912109375,18.656004150390626,28.9119912109375,21.216004150390624Q27.9039912109375,23.776004150390627,25.8559912109375,25.824004150390625Q23.8079912109375,27.872004150390627,21.2479912109375,28.896004150390624Q18.6879912109375,29.920004150390625,15.9999912109375,29.920004150390625Q13.3119912109375,29.920004150390625,10.7359912109375,28.896004150390624Q8.1599912109375,27.872004150390627,6.1119912109375,25.824004150390625Q4.0639912109375,23.776004150390627,3.0399912109375,21.216004150390624Q2.0159931182875,18.656004150390626,2.0159912109375,15.968004150390625Q2.0159893035875,13.280004150390624,3.0399912109375,10.720004150390626Q4.0639912109375,8.160004150390625,6.1119912109375,6.112004150390625Q8.1599912109375,4.064004150390625,10.7359912109375,3.056004150390625Q13.3119912109375,2.048004627227625,15.9999912109375,2.048004150390625Q18.6879912109375,2.048003673553625,21.2479912109375,3.056004150390625Q23.8079912109375,4.064004150390625,25.8559912109375,6.112004150390625ZM22.5279912109375,22.368004150390625Q23.1999912109375,21.696004150390625,23.1199912109375,20.832004150390624Q23.0399912109375,19.968004150390627,22.3679912109375,19.296004150390626L19.0079912109375,15.936004150390625L22.3679912109375,12.576004150390625Q23.0399912109375,11.904004150390625,23.1199912109375,11.040004150390626Q23.1999912109375,10.176004150390625,22.5279912109375,9.504004150390625Q21.8559912109375,8.832004150390624,20.9119912109375,8.832004150390624Q19.9679912109375,8.832004150390624,19.2959912109375,9.504004150390625L15.9359912109375,12.832004150390626L12.6719912109375,9.568004150390625Q11.9999912109375,8.928004150390624,11.1359912109375,8.848004150390626Q10.2719912109375,8.768004150390624,9.5999912109375,9.408004150390624Q8.927991210937499,10.080004150390625,8.927991210937499,11.040004150390626Q8.927991210937499,12.000004150390625,9.5999912109375,12.672004150390626L12.8639912109375,15.936004150390625L9.5999912109375,19.200004150390626Q8.927991210937499,19.872004150390627,8.927991210937499,20.816004150390626Q8.927991210937499,21.760004150390625,9.5999912109375,22.432004150390625Q10.2719912109375,23.104004150390626,11.1359912109375,23.024004150390624Q11.9999912109375,22.944004150390626,12.6719912109375,22.272004150390625L15.9359912109375,19.008004150390626L19.2959912109375,22.368004150390625Q19.9679912109375,23.040004150390626,20.9119912109375,23.040004150390626Q21.8559912109375,23.040004150390626,22.5279912109375,22.368004150390625Z" fill="#D42568" fill-opacity="1"/></g></g></svg>